ffmpeg started on 2025-05-19 at 12:10:39
Report written to "D:\Convert\FFMetrics\reports\psnr_report-6.txt"
Log level: 32
Command line:
ffmpeg -hide_banner -nostdin -i "G:\\\xc0\xed\xe8\xec\xe5\\\xce\xed\xe3\xee\xe8\xed\xe3\xe8\\!_30_\xc2\xe5\xf1\xed\xe0_2023\\DreamCast\\\xd2\xe5\xed\xfc \xeb\xfe\xe1\xe2\xe8 \xe2 \xf2\xe0\xe9\xed\xee\xe9 \xea\xee\xec\xed\xe0\xf2\xe5\\[DC] Aiyou de Mishi - 02_Telegram_HEVC.mkv" -i "G:\\\xc0\xed\xe8\xec\xe5\\\xce\xed\xe3\xee\xe8\xed\xe3\xe8\\!_30_\xc2\xe5\xf1\xed\xe0_2023\\DreamCast\\\xd2\xe5\xed\xfc \xeb\xfe\xe1\xe2\xe8 \xe2 \xf2\xe0\xe9\xed\xee\xe9 \xea\xee\xec\xed\xe0\xf2\xe5\\[DC] Aiyou de Mishi - 02_Telegram.mp4" -lavfi "[0:v]settb=AVTB,setpts=PTS-STARTPTS,format=pix_fmts=yuv420p10,fps=24/1,scale=1920:1080:flags=bicubic[main];[1:v]settb=AVTB,setpts=PTS-STARTPTS,format=pix_fmts=yuv420p,fps=24/1,scale=1920:1080:flags=bicubic[ref];[main][ref]psnr=eof_action=endall:stats_file='D\\:/Convert/FFMetrics/logs/psnr_logfile-6.txt'" -f null -
Input #0, matroska,webm, from 'G:\Аниме\Онгоинги\!_30_Весна_2023\DreamCast\Тень любви в тайной комнате\[DC] Aiyou de Mishi - 02_Telegram_HEVC.mkv':
  Metadata:
    COMPATIBLE_BRANDS: isomiso2avc1mp41
    MAJOR_BRAND     : isom
    MINOR_VERSION   : 512
    ENCODER         : Lavf61.7.100
  Duration: 00:15:52.30, start: -0.021000, bitrate: 1317 kb/s
  Stream #0:0: Video: hevc (Main 10), yuv420p10le(tv, bt709, progressive), 1920x1080 [SAR 1:1 DAR 16:9], 24 fps, 24 tbr, 1k tbn (default)
      Metadata:
        HANDLER_NAME    : VideoHandler
        VENDOR_ID       : [0][0][0][0]
        ENCODER         : Lavc61.19.100 libx265
        BPS             : 1117669
        DURATION        : 00:15:52.166666666
        NUMBER_OF_FRAMES: 22852
        NUMBER_OF_BYTES : 133025859
        _STATISTICS_WRITING_APP: mkvpropedit v66.0.0 ('Josie') 64-bit
        _STATISTICS_WRITING_DATE_UTC: 2025-05-19 07:06:06
        _STATISTICS_TAGS: BPS DURATION NUMBER_OF_FRAMES NUMBER_OF_BYTES
  Stream #0:1: Audio: aac (LC), 48000 Hz, stereo, fltp (default)
      Metadata:
        HANDLER_NAME    : SoundHandler
        VENDOR_ID       : [0][0][0][0]
        ENCODER         : Lavc61.19.100 aac
        BPS             : 196084
        DURATION        : 00:15:52.277000000
        NUMBER_OF_FRAMES: 44639
        NUMBER_OF_BYTES : 23340890
        _STATISTICS_WRITING_APP: mkvpropedit v66.0.0 ('Josie') 64-bit
        _STATISTICS_WRITING_DATE_UTC: 2025-05-19 07:06:06
        _STATISTICS_TAGS: BPS DURATION NUMBER_OF_FRAMES NUMBER_OF_BYTES
Input #1, mov,mp4,m4a,3gp,3g2,mj2, from 'G:\Аниме\Онгоинги\!_30_Весна_2023\DreamCast\Тень любви в тайной комнате\[DC] Aiyou de Mishi - 02_Telegram.mp4':
  Metadata:
    major_brand     : isom
    minor_version   : 512
    compatible_brands: isomiso2avc1mp41
    encoder         : Lavf60.4.101
  Duration: 00:15:52.26, start: 0.000000, bitrate: 3467 kb/s
  Stream #1:0[0x1](und): Video: h264 (Main) (avc1 / 0x31637661), yuv420p(tv, bt709, progressive), 1920x1080 [SAR 1:1 DAR 16:9], 3265 kb/s, 24 fps, 24 tbr, 12288 tbn (default)
      Metadata:
        handler_name    : VideoHandler
        vendor_id       : [0][0][0][0]
        encoder         : Lavc60.9.100 h264_qsv
  Stream #1:1[0x2](und): Audio: aac (LC) (mp4a / 0x6134706D), 48000 Hz, stereo, fltp, 196 kb/s (default)
      Metadata:
        handler_name    : SoundHandler
        vendor_id       : [0][0][0][0]
Stream mapping:
  Stream #0:0 (hevc) -> settb:default
  Stream #1:0 (h264) -> settb:default
  psnr:default -> Stream #0:0 (wrapped_avframe)
  Stream #0:1 -> #0:1 (aac (native) -> pcm_s16le (native))
Output #0, null, to 'pipe:':
  Metadata:
    COMPATIBLE_BRANDS: isomiso2avc1mp41
    MAJOR_BRAND     : isom
    MINOR_VERSION   : 512
    encoder         : Lavf61.7.100
  Stream #0:0: Video: wrapped_avframe, yuv420p10le(tv, bt709, progressive), 1920x1080 [SAR 1:1 DAR 16:9], q=2-31, 200 kb/s, 24 fps, 24 tbn
      Metadata:
        encoder         : Lavc61.19.100 wrapped_avframe
  Stream #0:1: Audio: pcm_s16le, 48000 Hz, stereo, s16, 1536 kb/s (default)
      Metadata:
        HANDLER_NAME    : SoundHandler
        VENDOR_ID       : [0][0][0][0]
        _STATISTICS_TAGS: BPS DURATION NUMBER_OF_FRAMES NUMBER_OF_BYTES
        BPS             : 196084
        DURATION        : 00:15:52.277000000
        NUMBER_OF_FRAMES: 44639
        NUMBER_OF_BYTES : 23340890
        _STATISTICS_WRITING_APP: mkvpropedit v66.0.0 ('Josie') 64-bit
        _STATISTICS_WRITING_DATE_UTC: 2025-05-19 07:06:06
        encoder         : Lavc61.19.100 pcm_s16le
frame=  194 fps=0.0 q=-0.0 size=N/A time=00:00:08.08 bitrate=N/A speed=15.3x    frame=  395 fps=380 q=-0.0 size=N/A time=00:00:16.45 bitrate=N/A speed=15.8x    frame=  644 fps=415 q=-0.0 size=N/A time=00:00:26.83 bitrate=N/A speed=17.3x    frame=  826 fps=398 q=-0.0 size=N/A time=00:00:34.41 bitrate=N/A speed=16.6x    frame= 1010 fps=390 q=-0.0 size=N/A time=00:00:42.08 bitrate=N/A speed=16.3x    frame= 1263 fps=407 q=-0.0 size=N/A time=00:00:52.62 bitrate=N/A speed=  17x    frame= 1493 fps=414 q=-0.0 size=N/A time=00:01:02.20 bitrate=N/A speed=17.2x    frame= 1722 fps=416 q=-0.0 size=N/A time=00:01:11.75 bitrate=N/A speed=17.3x    frame= 1917 fps=412 q=-0.0 size=N/A time=00:01:19.87 bitrate=N/A speed=17.2x    frame= 2158 fps=416 q=-0.0 size=N/A time=00:01:29.91 bitrate=N/A speed=17.4x    frame= 2351 fps=413 q=-0.0 size=N/A time=00:01:37.95 bitrate=N/A speed=17.2x    frame= 2600 fps=419 q=-0.0 size=N/A time=00:01:48.33 bitrate=N/A speed=17.4x    frame= 2824 fps=419 q=-0.0 size=N/A time=00:01:57.66 bitrate=N/A speed=17.5x    frame= 3073 fps=423 q=-0.0 size=N/A time=00:02:08.04 bitrate=N/A speed=17.6x    frame= 3322 fps=427 q=-0.0 size=N/A time=00:02:18.41 bitrate=N/A speed=17.8x    frame= 3557 fps=428 q=-0.0 size=N/A time=00:02:28.20 bitrate=N/A speed=17.8x    frame= 3774 fps=428 q=-0.0 size=N/A time=00:02:37.25 bitrate=N/A speed=17.8x    frame= 3923 fps=420 q=-0.0 size=N/A time=00:02:43.45 bitrate=N/A speed=17.5x    frame= 4140 fps=419 q=-0.0 size=N/A time=00:02:52.50 bitrate=N/A speed=17.5x    frame= 4334 fps=418 q=-0.0 size=N/A time=00:03:00.58 bitrate=N/A speed=17.4x    frame= 4500 fps=413 q=-0.0 size=N/A time=00:03:07.50 bitrate=N/A speed=17.2x    frame= 4707 fps=412 q=-0.0 size=N/A time=00:03:16.12 bitrate=N/A speed=17.2x    frame= 4914 fps=412 q=-0.0 size=N/A time=00:03:24.75 bitrate=N/A speed=17.2x    frame= 5145 fps=413 q=-0.0 size=N/A time=00:03:34.37 bitrate=N/A speed=17.2x    frame= 5286 fps=408 q=-0.0 size=N/A time=00:03:40.25 bitrate=N/A speed=  17x    frame= 5529 fps=410 q=-0.0 size=N/A time=00:03:50.37 bitrate=N/A speed=17.1x    frame= 5792 fps=414 q=-0.0 size=N/A time=00:04:01.33 bitrate=N/A speed=17.2x    frame= 6049 fps=417 q=-0.0 size=N/A time=00:04:12.04 bitrate=N/A speed=17.4x    frame= 6280 fps=418 q=-0.0 size=N/A time=00:04:21.66 bitrate=N/A speed=17.4x    frame= 6554 fps=422 q=-0.0 size=N/A time=00:04:33.08 bitrate=N/A speed=17.6x    frame= 6798 fps=423 q=-0.0 size=N/A time=00:04:43.25 bitrate=N/A speed=17.6x    frame= 7054 fps=426 q=-0.0 size=N/A time=00:04:53.91 bitrate=N/A speed=17.7x    frame= 7304 fps=427 q=-0.0 size=N/A time=00:05:04.33 bitrate=N/A speed=17.8x    frame= 7534 fps=428 q=-0.0 size=N/A time=00:05:13.91 bitrate=N/A speed=17.8x    frame= 7785 fps=430 q=-0.0 size=N/A time=00:05:24.37 bitrate=N/A speed=17.9x    frame= 8062 fps=433 q=-0.0 size=N/A time=00:05:35.91 bitrate=N/A speed=  18x    frame= 8310 fps=434 q=-0.0 size=N/A time=00:05:46.25 bitrate=N/A speed=18.1x    frame= 8582 fps=436 q=-0.0 size=N/A time=00:05:57.58 bitrate=N/A speed=18.2x    frame= 8822 fps=437 q=-0.0 size=N/A time=00:06:07.58 bitrate=N/A speed=18.2x    frame= 9042 fps=437 q=-0.0 size=N/A time=00:06:16.75 bitrate=N/A speed=18.2x    frame= 9279 fps=438 q=-0.0 size=N/A time=00:06:26.62 bitrate=N/A speed=18.2x    frame= 9526 fps=438 q=-0.0 size=N/A time=00:06:36.91 bitrate=N/A speed=18.3x    frame= 9783 fps=440 q=-0.0 size=N/A time=00:06:47.62 bitrate=N/A speed=18.3x    frame= 9988 fps=439 q=-0.0 size=N/A time=00:06:56.16 bitrate=N/A speed=18.3x    frame=10238 fps=440 q=-0.0 size=N/A time=00:07:06.58 bitrate=N/A speed=18.3x    frame=10504 fps=442 q=-0.0 size=N/A time=00:07:17.66 bitrate=N/A speed=18.4x    frame=10788 fps=444 q=-0.0 size=N/A time=00:07:29.50 bitrate=N/A speed=18.5x    frame=11071 fps=446 q=-0.0 size=N/A time=00:07:41.29 bitrate=N/A speed=18.6x    frame=11337 fps=447 q=-0.0 size=N/A time=00:07:52.37 bitrate=N/A speed=18.6x    frame=11588 fps=448 q=-0.0 size=N/A time=00:08:02.83 bitrate=N/A speed=18.7x    frame=11864 fps=450 q=-0.0 size=N/A time=00:08:14.33 bitrate=N/A speed=18.7x    frame=12111 fps=450 q=-0.0 size=N/A time=00:08:24.62 bitrate=N/A speed=18.8x    frame=12361 fps=451 q=-0.0 size=N/A time=00:08:35.04 bitrate=N/A speed=18.8x    frame=12631 fps=452 q=-0.0 size=N/A time=00:08:46.29 bitrate=N/A speed=18.8x    frame=12860 fps=452 q=-0.0 size=N/A time=00:08:55.83 bitrate=N/A speed=18.8x    frame=13140 fps=454 q=-0.0 size=N/A time=00:09:07.50 bitrate=N/A speed=18.9x    frame=13399 fps=454 q=-0.0 size=N/A time=00:09:18.29 bitrate=N/A speed=18.9x    frame=13665 fps=456 q=-0.0 size=N/A time=00:09:29.37 bitrate=N/A speed=  19x    frame=13947 fps=457 q=-0.0 size=N/A time=00:09:41.12 bitrate=N/A speed=19.1x    frame=14232 fps=459 q=-0.0 size=N/A time=00:09:53.00 bitrate=N/A speed=19.1x    frame=14485 fps=459 q=-0.0 size=N/A time=00:10:03.54 bitrate=N/A speed=19.1x    frame=14756 fps=460 q=-0.0 size=N/A time=00:10:14.83 bitrate=N/A speed=19.2x    frame=15008 fps=461 q=-0.0 size=N/A time=00:10:25.33 bitrate=N/A speed=19.2x    frame=15251 fps=461 q=-0.0 size=N/A time=00:10:35.45 bitrate=N/A speed=19.2x    frame=15487 fps=461 q=-0.0 size=N/A time=00:10:45.29 bitrate=N/A speed=19.2x    frame=15731 fps=461 q=-0.0 size=N/A time=00:10:55.45 bitrate=N/A speed=19.2x    frame=16005 fps=462 q=-0.0 size=N/A time=00:11:06.87 bitrate=N/A speed=19.3x    frame=16274 fps=463 q=-0.0 size=N/A time=00:11:18.08 bitrate=N/A speed=19.3x    frame=16556 fps=464 q=-0.0 size=N/A time=00:11:29.83 bitrate=N/A speed=19.3x    frame=16813 fps=465 q=-0.0 size=N/A time=00:11:40.54 bitrate=N/A speed=19.4x    frame=17068 fps=465 q=-0.0 size=N/A time=00:11:51.16 bitrate=N/A speed=19.4x    frame=17343 fps=466 q=-0.0 size=N/A time=00:12:02.62 bitrate=N/A speed=19.4x    frame=17618 fps=467 q=-0.0 size=N/A time=00:12:14.08 bitrate=N/A speed=19.5x    frame=17853 fps=467 q=-0.0 size=N/A time=00:12:23.87 bitrate=N/A speed=19.4x    frame=18112 fps=467 q=-0.0 size=N/A time=00:12:34.66 bitrate=N/A speed=19.5x    frame=18363 fps=468 q=-0.0 size=N/A time=00:12:45.12 bitrate=N/A speed=19.5x    frame=18571 fps=467 q=-0.0 size=N/A time=00:12:53.79 bitrate=N/A speed=19.5x    frame=18734 fps=465 q=-0.0 size=N/A time=00:13:00.58 bitrate=N/A speed=19.4x    frame=18890 fps=463 q=-0.0 size=N/A time=00:13:07.08 bitrate=N/A speed=19.3x    frame=19112 fps=462 q=-0.0 size=N/A time=00:13:16.33 bitrate=N/A speed=19.3x    frame=19341 fps=462 q=-0.0 size=N/A time=00:13:25.87 bitrate=N/A speed=19.3x    frame=19562 fps=462 q=-0.0 size=N/A time=00:13:35.08 bitrate=N/A speed=19.2x    frame=19778 fps=461 q=-0.0 size=N/A time=00:13:44.08 bitrate=N/A speed=19.2x    frame=19998 fps=461 q=-0.0 size=N/A time=00:13:53.25 bitrate=N/A speed=19.2x    frame=20210 fps=460 q=-0.0 size=N/A time=00:14:02.08 bitrate=N/A speed=19.2x    frame=20428 fps=460 q=-0.0 size=N/A time=00:14:11.16 bitrate=N/A speed=19.2x    frame=20698 fps=461 q=-0.0 size=N/A time=00:14:22.41 bitrate=N/A speed=19.2x    frame=20972 fps=461 q=-0.0 size=N/A time=00:14:33.83 bitrate=N/A speed=19.2x    frame=21249 fps=462 q=-0.0 size=N/A time=00:14:45.37 bitrate=N/A speed=19.3x    frame=21538 fps=463 q=-0.0 size=N/A time=00:14:57.41 bitrate=N/A speed=19.3x    frame=21799 fps=464 q=-0.0 size=N/A time=00:15:08.29 bitrate=N/A speed=19.3x    frame=22071 fps=464 q=-0.0 size=N/A time=00:15:19.62 bitrate=N/A speed=19.4x    frame=22355 fps=465 q=-0.0 size=N/A time=00:15:31.45 bitrate=N/A speed=19.4x    frame=22613 fps=466 q=-0.0 size=N/A time=00:15:42.20 bitrate=N/A speed=19.4x    [Parsed_psnr_10 @ 000001d911be25c0] PSNR y:48.339929 u:53.702515 v:53.677677 average:49.509502 min:36.675297 max:inf
[out#0/null @ 000001d904cebfc0] video:9819KiB audio:178556KiB subtitle:0KiB other streams:0KiB global headers:0KiB muxing overhead: unknown
frame=22852 fps=467 q=-0.0 Lsize=N/A time=00:15:52.16 bitrate=N/A speed=19.4x    
